<svg xmlns="http://www.w3.org/2000/svg" viewBox="0 0 24 24" fill="currentColor" width="24" height="24">
  <path d="M20.16 12.594l-4.995 1.433c-.96.276-1.74-.8-1.176-1.63l2.905-4.308a1.072 1.072 0 011.596-.206l2.039 1.81c.634.564.48 1.55-.37 1.901zm-1.028 5.8l-2.039 1.81a1.072 1.072 0 01-1.596-.206l-2.905-4.308c-.564-.83.216-1.906 1.176-1.63l4.995 1.433c.85.244 1.003 1.337.37 1.901zM12 0C5.373 0 0 5.373 0 12s5.373 12 12 12 12-5.373 12-12S18.627 0 12 0zm-1.24 14.49c.276.96-.8 1.74-1.63 1.176L4.822 12.76a1.072 1.072 0 01-.206-1.596l1.81-2.039c.564-.634 1.55-.48 1.901.37l1.433 4.995zm-.52-5.4L8.807 4.095c-.244-.85.693-1.597 1.423-1.137l4.308 2.905c.83.564.564 1.906-.37 1.901l-4.995-.174c-.96-.033-1.21-.96-.933-1.5z"/>
</svg>
