<svg xmlns="http://www.w3.org/2000/svg" viewBox="0 0 24 24" fill="currentColor" width="24" height="24">
  <path d="M11.056 2.163c-.197-.19-.49-.283-.85-.243-.36.04-.79.2-1.287.48l-4.07 2.298c-.562.317-.897.588-1.005.813-.108.226-.07.475.113.748.126.188.331.305.615.352.284.047 1.256.117 2.916.211l2.24.127c.475.028.847-.076 1.117-.314.27-.237.404-.564.404-.98V3.08c0-.42-.065-.72-.193-.918zm-.82 9.32L7.54 9.932c-.448-.257-.83-.363-1.148-.319-.318.044-.558.232-.72.564l-1.845 3.77c-.187.384-.237.72-.15 1.008.088.288.3.483.636.586.232.07.488.058.77-.037.282-.095 1.12-.489 2.516-1.18l1.842-.915c.428-.213.697-.472.808-.778.11-.306.076-.62-.103-.94-.118-.21-.3-.344-.543-.403zm2.19 2.16c-.317-.044-.615.05-.895.283-.28.233-.42.527-.42.882l-.12 4.527c-.012.53.058.912.211 1.144.152.233.398.344.738.334.234-.007.472-.082.714-.226.242-.144.968-.741 2.178-1.79l1.617-1.408c.35-.304.538-.596.564-.874.026-.278-.1-.533-.379-.764a1.57 1.57 0 00-.69-.31c-.27-.054-1.18-.136-2.73-.245l-.787-.053zm3.648-4.258l-2.2 1.088c-.428.212-.697.472-.808.778-.11.306-.075.619.104.94.118.21.3.344.542.402.242.058.543.026.903-.096l2.698-1.553c.448-.258.737-.497.867-.717.13-.22.123-.455-.02-.704-.098-.172-.27-.306-.516-.403-.246-.097-1.01-.267-2.29-.51l.72.775zm-3.363-1.143c.317.044.615-.05.895-.283.28-.234.42-.527.42-.882l.089-4.495c.01-.53-.06-.912-.213-1.145-.152-.233-.398-.344-.737-.334-.234.007-.473.082-.714.226-.242.144-.968.74-2.178 1.79L8.856 4.727c-.35.304-.538.595-.564.874-.026.278.1.533.38.764.192.159.42.263.688.31.27.054 1.181.136 2.731.245l.62.042z"/>
</svg>
